<svg viewBox="0 0 16 16" fill="none" xmlns="http://www.w3.org/2000/svg">
  <path
    d="M13.9292 7.4819C12.8121 7.00101 11.8346 6.34129 10.9965 5.50353C10.1587 4.66579 9.49899 3.68794 9.0181 2.57082C8.8335 2.14268 8.68516 1.70258 8.57143 1.25136C8.53434 1.10384 8.40206 1 8.25001 1C8.09794 1 7.96566 1.10384 7.9286 1.25136C7.81484 1.70258 7.6665 2.14227 7.4819 2.57082C7.00101 3.68794 6.34129 4.66579 5.50353 5.50353C4.66579 6.34129 3.68794 7.00101 2.57082 7.4819C2.14268 7.6665 1.70258 7.81484 1.25136 7.92859C1.10384 7.96566 1 8.09794 1 8.25001C1 8.40206 1.10384 8.53434 1.25136 8.57143C1.70258 8.68516 2.14227 8.8335 2.57082 9.0181C3.68794 9.49899 4.66539 10.1587 5.50353 10.9965C6.34169 11.8342 7.00101 12.8121 7.4819 13.9292C7.6665 14.3573 7.81484 14.7974 7.9286 15.2486C7.96566 15.3962 8.09794 15.5 8.25001 15.5C8.40206 15.5 8.53434 15.3962 8.57143 15.2486C8.68516 14.7974 8.8335 14.3577 9.0181 13.9292C9.49899 12.8121 10.1587 11.8346 10.9965 10.9965C11.8342 10.1587 12.8121 9.49899 13.9292 9.0181C14.3573 8.8335 14.7974 8.68516 15.2486 8.57143C15.3962 8.53434 15.5 8.40206 15.5 8.25001C15.5 8.09794 15.3962 7.96566 15.2486 7.92859C14.7974 7.81484 14.3577 7.6665 13.9292 7.4819Z"
    fill="currentColor"
  />
</svg>
